<svg width="65" height="68" viewBox="0 0 65 68" fill="none" xmlns="http://www.w3.org/2000/svg">
<path fill-rule="evenodd" clip-rule="evenodd" d="M19.2951 45.099C20.7383 45.099 21.9082 46.2689 21.9082 47.7121L21.9082 52.9384C21.9082 54.3816 20.7383 55.5516 19.2951 55.5516C17.8519 55.5516 16.6819 54.3816 16.6819 52.9384L16.6819 47.7121C16.6819 46.2689 17.8519 45.099 19.2951 45.099Z" fill="#00D5E2"/>
<path fill-rule="evenodd" clip-rule="evenodd" d="M46.6577 41.1793C48.1009 41.1793 49.2709 42.3492 49.2709 43.7924L49.2709 56.8581C49.2709 58.3013 48.1009 59.4713 46.6577 59.4713C45.2145 59.4713 44.0446 58.3013 44.0446 56.8581L44.0446 43.7924C44.0446 42.3492 45.2145 41.1793 46.6577 41.1793Z" fill="#00D5E2"/>
<path fill-rule="evenodd" clip-rule="evenodd" d="M37.5369 32.5965C38.9801 32.5965 40.15 33.7665 40.15 35.2097L40.15 64.6753C40.15 66.1185 38.9801 67.2885 37.5369 67.2885C36.0937 67.2885 34.9237 66.1185 34.9237 64.6753L34.9237 35.2097C34.9237 33.7665 36.0937 32.5965 37.5369 32.5965Z" fill="#00D5E2"/>
<path fill-rule="evenodd" clip-rule="evenodd" d="M28.416 37.3272C29.8592 37.3272 31.0291 38.4972 31.0291 39.9404L31.0291 59.9446C31.0291 61.3878 29.8592 62.5577 28.416 62.5577C26.9728 62.5577 25.8028 61.3878 25.8028 59.9446L25.8028 39.9404C25.8028 38.4972 26.9728 37.3272 28.416 37.3272Z" fill="#00D5E2"/>
<path fill-rule="evenodd" clip-rule="evenodd" d="M10.1491 39.2194C11.5923 39.2194 12.7622 40.3893 12.7622 41.8325L12.7622 58.8179C12.7622 60.2612 11.5923 61.4311 10.1491 61.4311C8.70589 61.4311 7.53594 60.2611 7.53594 58.8179L7.53594 41.8325C7.53594 40.3893 8.70589 39.2194 10.1491 39.2194Z" fill="#003BE5"/>
<path fill-rule="evenodd" clip-rule="evenodd" d="M55.7786 39.2194C57.2218 39.2194 58.3918 40.3893 58.3918 41.8325L58.3918 58.8179C58.3918 60.2612 57.2218 61.4311 55.7786 61.4311C54.3354 61.4311 53.1655 60.2611 53.1655 58.8179L53.1655 41.8325C53.1655 40.3893 54.3354 39.2194 55.7786 39.2194Z" fill="#003BE5"/>
<path fill-rule="evenodd" clip-rule="evenodd" d="M32.9513 5.22629C18.1265 5.22629 6.12884 17.1868 6.12884 31.9161V47.2628H9.73448C11.1777 47.2628 12.3476 48.4327 12.3476 49.8759C12.3476 51.3191 11.1777 52.4891 9.73448 52.4891H5.17404C2.81496 52.4891 0.90255 50.5766 0.90255 48.2176V31.9161C0.90255 14.2782 15.2624 0 32.9513 0C50.6402 0 65 14.2782 65 31.9161V48.2176C65 50.5766 63.0876 52.4891 60.7285 52.4891H56.1681C54.7249 52.4891 53.5549 51.3191 53.5549 49.8759C53.5549 48.4327 54.7249 47.2628 56.1681 47.2628H59.7737V31.9161C59.7737 17.1868 47.776 5.22629 32.9513 5.22629Z" fill="#003BE5"/>
</svg>
